# xmcd CD database file
#
# Track frame offsets:
#	150
#	20526
#	37905
#	51063
#	72391
#	93540
#	109978
#	132392
#	146932
#	160632
#	176212
#	186122
#	199854
#
# Disc length: 2789 seconds
#
# Revision: 0
# Processed by: cddbd v1.5.2PL0 Copyright (c) Steve Scherf et al.
# Submitted via: CDex 1.70beta2
#
DISCID=bf0ae30d
DTITLE=Jan Hammer - Seasons Pt. 1
DYEAR=2018
DGENRE=Jazz
TTITLE0=Miami-Night
TTITLE1=68 Reasons
TTITLE2=Ocean Drive
TTITLE3=Suite European
TTITLE4=Seasons
TTITLE5=April
TTITLE6=Winter Solstice
TTITLE7=New World II
TTITLE8=Sanctuary
TTITLE9=Suite Latin
TTITLE10=Causeway Bridge
TTITLE11=Cyclone
TTITLE12=It's Time
EXTD=YEAR: 2018
EXTT0=
EXTT1=
EXTT2=
EXTT3=
EXTT4=
EXTT5=
EXTT6=
EXTT7=
EXTT8=
EXTT9=
EXTT10=
EXTT11=
EXTT12=
PLAYORDER=
